<svg width="252" height="151" viewBox="0 0 252 151" fill="none" xmlns="http://www.w3.org/2000/svg">
<mask id="mask0_2_40" style="mask-type:luminance" maskUnits="userSpaceOnUse" x="0" y="0" width="252" height="151">
<path d="M0 0H252V151H0V0Z" fill="white"/>
</mask>
<g mask="url(#mask0_2_40)">
<path fill-rule="evenodd" clip-rule="evenodd" d="M144.88 34.8375C141.905 31.8697 138.566 29.8017 134.852 28.6318V23.2514H137.187C137.995 23.2514 138.656 22.5915 138.656 21.7848V20.1333C138.656 19.3266 137.995 18.6666 137.187 18.6666H134.852H131.787V23.2514V27.8854C131.777 27.8841 131.768 27.8819 131.758 27.8801V33.7204C140.422 35.8128 146.865 43.6026 146.865 52.8963C146.865 63.8044 138.008 72.6409 127.086 72.6409C116.152 72.6409 107.296 63.8044 107.296 52.8963C107.296 43.6026 113.729 35.8128 122.403 33.7204V32.4152H122.404V22.5201V17.9349H119.339H117.004C116.196 17.9349 115.534 18.5948 115.534 19.4015V21.0535C115.534 21.8602 116.196 22.5201 117.004 22.5201H119.339V28.5706L119.339 28.571C115.531 29.7285 112.111 31.8209 109.077 34.8375C104.15 39.7531 101.687 45.695 101.687 52.6422C101.687 59.6808 104.15 65.6528 109.077 70.5689C114.005 75.4845 119.99 77.9427 127.024 77.9427C133.998 77.9427 139.943 75.4845 144.88 70.5689C149.807 65.6528 152.271 59.6808 152.271 52.6422C152.271 45.695 149.807 39.7531 144.88 34.8375Z" fill="#31348D"/>
<path fill-rule="evenodd" clip-rule="evenodd" d="M128.063 19.7981C129.84 19.7981 131.282 18.3608 131.282 16.5872C131.282 14.8142 129.84 13.3768 128.063 13.3768C126.286 13.3768 124.845 14.8142 124.845 16.5872C124.845 18.3608 126.286 19.7981 128.063 19.7981Z" fill="#31348D"/>
<path fill-rule="evenodd" clip-rule="evenodd" d="M128.847 9.67578C130.247 9.67578 131.382 8.54311 131.382 7.14613C131.382 5.74914 130.247 4.61692 128.847 4.61692C127.447 4.61692 126.312 5.74914 126.312 7.14613C126.312 8.54311 127.447 9.67578 128.847 9.67578Z" fill="#31348D"/>
<path fill-rule="evenodd" clip-rule="evenodd" d="M127.337 24.2193C127.337 23.2876 126.58 22.5319 125.645 22.5319C124.712 22.5319 123.955 23.2876 123.955 24.2193C123.955 25.1511 124.712 25.9064 125.645 25.9064C126.58 25.9064 127.337 25.1511 127.337 24.2193Z" fill="#31348D"/>
<path fill-rule="evenodd" clip-rule="evenodd" d="M123.258 11.2158C123.78 11.5999 124.515 11.489 124.9 10.9679C125.285 10.4468 125.174 9.71287 124.652 9.32881C124.13 8.94475 123.394 9.05562 123.009 9.57672C122.624 10.0978 122.735 10.8318 123.258 11.2158Z" fill="#31348D"/>
<path fill-rule="evenodd" clip-rule="evenodd" d="M121.051 36.171L120.4 37.387L114.499 41.6618L113.059 41.9182C115.104 39.3158 117.868 37.3014 121.051 36.171ZM126.764 40.7305V45.6155L123.572 47.9292L120.379 50.2429L115.724 48.7341L115.37 45.2709L115.019 41.8166L120.389 37.9245L123.572 39.3246L126.764 40.7305ZM130.926 58.3919L133.802 62.343L132.047 65.352L130.3 68.3496H123.658L121.91 65.352L120.156 62.343L123.033 58.3919H130.926ZM127.195 40.7305L130.387 39.3246L133.567 37.9245L138.939 41.8312L138.587 45.2709L138.234 48.7341L133.579 50.2429L130.387 47.9292L127.195 45.6155V40.7305ZM140.899 41.9182L139.423 41.6543L133.563 37.3928L132.907 36.171C136.091 37.3014 138.853 39.3158 140.899 41.9182ZM140.965 60.6231L137.561 61.3558L134.15 62.0911L131.273 58.14L132.493 54.3957L133.712 50.6509L138.367 49.1421L140.694 51.737L143.022 54.3336L140.965 60.6231ZM144.655 52.9721C144.616 56.6326 143.462 60.0266 141.515 62.829L141.271 61.0697L143.542 54.126L144.655 52.9721ZM126.979 70.4273C125.116 70.4273 123.318 70.1386 121.631 69.6051L123.339 68.7798H130.62L132.328 69.6051C130.64 70.1386 128.844 70.4273 126.979 70.4273ZM116.397 61.3558L112.993 60.6218L110.933 54.3367L113.264 51.737L115.59 49.1421L120.246 50.6509L121.466 54.3957L122.686 58.14L119.809 62.0911L116.397 61.3558ZM112.444 62.829C110.496 60.0266 109.341 56.6326 109.304 52.9721L110.409 54.1198L112.687 61.0742L112.444 62.829ZM108.47 52.7907C108.47 62.99 116.757 71.2571 126.979 71.2571C137.202 71.2571 145.488 62.99 145.488 52.7907C145.488 42.5918 137.202 34.323 126.979 34.323C116.757 34.323 108.47 42.5918 108.47 52.7907Z" fill="#31348D"/>
<path d="M44.8209 122.545C43.1025 124.237 41.0453 125.082 38.6495 125.082C36.2074 125.082 34.1387 124.237 32.442 122.545C30.7467 120.852 29.8995 118.788 29.8995 116.352C29.8995 113.961 30.7467 111.909 32.442 110.194C34.1387 108.48 36.2074 107.622 38.6495 107.622C41.0453 107.622 43.1025 108.48 44.8209 110.194C46.5393 111.909 47.3994 113.961 47.3994 116.352C47.3994 118.788 46.5393 120.852 44.8209 122.545ZM50.1113 104.916C46.9456 101.758 43.1256 100.178 38.6495 100.178C34.1258 100.178 30.2826 101.758 27.1174 104.916C23.9521 108.075 22.3701 111.886 22.3701 116.352C22.3701 120.865 23.9521 124.699 27.1174 127.858C30.2826 131.016 34.1258 132.594 38.6495 132.594C43.1256 132.594 46.9456 131.016 50.1113 127.858C53.2766 124.699 54.8599 120.865 54.8599 116.352C54.8599 111.886 53.2766 108.075 50.1113 104.916Z" fill="#31348D"/>
<path d="M62.7891 100.178C58.977 100.178 55.646 101.297 52.8163 103.535C52.502 103.784 52.4798 104.249 52.7425 104.551C54.1129 106.132 55.1499 107.854 55.866 109.705C56.0224 110.11 56.5461 110.205 56.863 109.908C57.4311 109.376 58.2321 108.77 59.2931 108.312C59.6224 108.171 60.9568 107.622 62.7891 107.622C65.1889 107.622 67.2501 108.481 68.972 110.199C70.6678 111.917 71.5288 113.973 71.5288 116.342C71.5288 118.789 70.6678 120.845 68.972 122.537C67.2501 124.229 65.1889 125.087 62.7891 125.087C60.9675 125.087 59.6393 124.549 59.306 124.407C58.2423 123.953 57.4373 123.351 56.8657 122.822C56.5474 122.527 56.0247 122.625 55.8704 123.029C55.1543 124.906 54.1182 126.65 52.7612 128.238C52.502 128.541 52.526 129.002 52.8389 129.25C55.6686 131.487 59.0002 132.584 62.7891 132.584C67.2763 132.584 71.0852 131.022 74.2416 127.847C77.4242 124.697 78.9897 120.871 78.9897 116.342C78.9897 111.891 77.4242 108.065 74.2416 104.916C71.0852 101.766 67.2763 100.178 62.7891 100.178Z" fill="#31348D"/>
<path d="M127.529 101.285C126.593 100.159 125.312 100.178 123.99 100.178H121.888H121.32C121.013 100.178 120.764 100.426 120.764 100.732C120.763 100.975 120.764 101.269 120.765 101.596C120.783 106.371 120.765 111.146 120.765 115.921C120.765 117.827 120.34 119.406 119.404 121.03C118.018 123.435 115.056 125.082 112.286 125.082C110.501 125.082 108.885 124.761 107.35 123.797C106.006 122.953 104.953 121.754 104.214 120.345C103.255 118.518 103.265 116.726 103.265 114.696V106.628C103.265 104.664 103.716 102.063 101.853 100.767C101.124 100.26 100.085 100.247 98.1544 100.178C97.1378 100.142 96.2991 100.188 95.7359 100.235V102.133V105.784V113.966C95.7359 116.435 95.7163 118.857 96.4702 121.251C97.9824 126.053 101.798 129.973 106.545 131.677C111.213 133.354 116.617 132.733 120.765 130.023C120.765 132.556 120.338 134.971 118.729 136.892C117.901 137.881 116.905 138.644 115.814 139.172C112.922 140.571 109.45 140.155 107.063 138.566C106.739 138.351 106.465 138.134 106.243 137.939C106.039 137.761 105.744 137.753 105.527 137.915C103.81 139.196 102.094 140.478 100.377 141.76C100.104 141.964 100.064 142.358 100.296 142.606C100.508 142.831 100.748 143.073 101.017 143.324C101.157 143.455 101.913 144.149 102.887 144.819C104.195 145.717 105.637 146.412 107.158 146.867C112.086 148.342 117.696 147.462 121.739 144.302C125.748 141.168 128.226 136.499 128.226 131.377V130.566V116.532C128.226 112.209 128.245 107.885 128.226 103.561C128.222 102.733 128.08 101.949 127.529 101.285Z" fill="#31348D"/>
<path d="M178.489 122.545C176.884 124.146 174.881 124.993 172.487 125.082C169.954 125.082 167.827 124.248 166.11 122.578C164.436 120.865 163.6 118.788 163.6 116.352C163.6 113.961 164.436 111.909 166.11 110.194C167.827 108.48 169.908 107.622 172.351 107.622C174.746 107.622 176.805 108.48 178.522 110.194C180.196 111.909 181.054 114.03 181.1 116.555C180.965 118.947 180.093 120.944 178.489 122.545ZM183.813 104.916C180.738 101.848 176.894 100.27 172.283 100.178C167.715 100.314 163.906 101.904 160.854 104.949C157.802 107.994 156.207 111.796 156.072 116.352C156.17 119.705 157.04 122.648 158.675 125.187C156.503 125.232 154.424 125.197 153.477 124.61C152.723 124.143 152.092 123.516 152.092 123.516C151.188 122.66 150.599 121.621 150.329 120.402C150.283 119.997 150.26 119.568 150.26 119.117V115.395V112.891V99.1525C150.248 98.4212 150.236 97.689 150.224 96.9576C150.2 95.4383 148.938 94.2311 147.416 94.2697C145.839 94.3105 144.264 94.3508 142.688 94.3912C142.702 102.633 142.717 110.875 142.732 119.117C142.732 122.907 144.065 126.155 146.735 128.861C147.38 129.505 148.386 130.381 149.779 131.13C152.726 132.714 155.613 132.701 157.46 132.693C161.811 132.672 166.639 132.669 172.104 132.589C172.187 132.59 172.268 132.594 172.351 132.594C175.561 132.594 178.476 131.738 181.1 130.023C181.373 131.738 182.208 132.594 183.61 132.594H188.562V116.352C188.562 115.946 188.536 115.541 188.494 115.134C188.131 111.074 186.57 107.667 183.813 104.916Z" fill="#31348D"/>
<path d="M206.126 122.537C204.43 124.228 202.317 125.087 199.786 125.087C197.386 124.984 195.378 124.151 193.786 122.537C192.169 120.949 191.334 118.945 191.229 116.55C191.229 114.026 192.09 111.917 193.76 110.2C195.482 108.534 197.595 107.674 200.126 107.622C202.526 107.753 204.534 108.638 206.126 110.225C207.743 111.839 208.604 113.818 208.734 116.212C208.709 118.737 207.821 120.845 206.126 122.537ZM215.857 113.218C215.823 112.989 215.778 112.776 215.778 112.776C215.726 112.594 215.7 112.438 215.648 112.256C215.439 111.423 215.178 110.642 214.839 109.887C214.63 109.367 214.395 108.872 214.108 108.403C214.082 108.403 214.082 108.377 214.082 108.352C213.822 107.935 213.561 107.519 213.274 107.102C212.961 106.685 212.648 106.269 212.309 105.878C212.048 105.54 211.76 105.228 211.448 104.916C211.369 104.838 211.291 104.759 211.213 104.707C210.821 104.343 210.431 103.978 210.013 103.64C209.622 103.328 209.204 103.016 208.786 102.729C208.734 102.703 208.682 102.651 208.63 102.651C208.239 102.391 207.848 102.156 207.456 101.948C207.378 101.896 207.3 101.87 207.221 101.844C206.752 101.584 206.282 101.376 205.786 101.22C205.448 101.063 205.108 100.96 204.769 100.855C204.456 100.751 204.116 100.673 203.803 100.621C203.595 100.543 203.387 100.491 203.152 100.465C202.134 100.282 201.091 100.179 199.995 100.179C198.769 100.179 197.595 100.282 196.473 100.543C194.595 100.908 192.847 101.636 191.23 102.677L191.269 97.0316C191.281 95.4709 190.015 94.1994 188.45 94.1994H183.669C183.685 96.765 183.701 99.3306 183.716 101.896C184.29 102.339 184.864 102.833 185.386 103.354C188.516 106.477 190.29 110.356 190.708 114.936C190.76 115.379 190.786 115.874 190.786 116.342V129.747C190.812 129.772 190.864 129.799 190.916 129.825C190.943 129.877 190.995 129.903 191.047 129.955C191.073 129.955 191.125 129.981 191.177 130.033C191.855 130.424 192.534 130.788 193.212 131.1C193.264 131.153 193.317 131.204 193.421 131.231C193.604 131.334 193.786 131.412 194.021 131.517H194.152C194.256 131.569 194.308 131.595 194.36 131.647H194.569C194.647 131.699 194.751 131.725 194.829 131.777C194.882 131.777 194.934 131.803 194.96 131.855C195.195 131.907 195.456 131.959 195.717 132.063C195.847 132.063 195.978 132.063 196.056 132.115C196.291 132.168 196.499 132.22 196.682 132.246C196.76 132.246 196.838 132.272 196.864 132.323H197.073C197.204 132.376 197.334 132.401 197.491 132.401C197.569 132.428 197.647 132.454 197.673 132.454H198.091C198.195 132.506 198.247 132.532 198.3 132.532C198.665 132.584 199.03 132.584 199.395 132.584H199.995C204.482 132.584 208.291 131.022 211.448 127.847C214.63 124.697 216.195 120.871 216.195 116.342C216.038 114.748 215.908 113.572 215.857 113.218Z" fill="#31348D"/>
<path d="M223.891 107.622H242.675C243.718 107.622 244.605 107.258 245.335 106.529C246.04 105.827 246.405 104.942 246.405 103.9V100.179H224.022C221.256 100.179 218.909 101.141 216.978 103.042C216.143 103.848 215.491 104.733 215.021 105.723C215.021 105.748 215.048 105.748 215.048 105.774C215.152 105.905 215.23 106.061 215.334 106.191H215.361L216.3 107.727V107.779C216.535 108.195 216.717 108.611 216.9 109.055C217.239 109.835 217.552 110.72 217.812 111.709L217.969 112.36L218.021 112.672C218.204 113.661 218.334 114.702 218.413 115.821V116.342C218.413 117.045 218.387 117.748 218.308 118.45C219.926 119.596 221.778 120.142 223.891 120.142H236.439C237.118 120.142 237.718 120.402 238.214 120.897C238.657 121.34 238.892 121.913 238.944 122.641C238.892 123.37 238.631 123.968 238.135 124.411C237.64 124.854 237.039 125.087 236.361 125.087H217.656C217.083 125.087 216.561 125.192 216.065 125.452C215.674 125.608 215.334 125.868 214.995 126.207C214.421 126.806 214.056 127.534 213.978 128.341C213.926 128.497 213.926 128.679 213.926 128.862V132.584H236.439C239.205 132.584 241.553 131.62 243.483 129.695C245.44 127.743 246.405 125.4 246.405 122.641C246.405 121.782 246.301 120.949 246.066 120.142C245.492 117.93 244.318 116.133 242.544 114.728C240.77 113.323 238.736 112.62 236.439 112.62H223.97C223.291 112.62 222.691 112.412 222.196 111.943C221.7 111.501 221.439 110.928 221.439 110.2C221.439 109.47 221.674 108.872 222.117 108.377C222.613 107.883 223.213 107.622 223.891 107.622Z" fill="#31348D"/>
<path d="M20.2851 110.131C18.444 110.146 16.5913 110.146 14.7617 110.146V107.861C14.7617 107.424 14.7848 107.002 14.8386 106.588C15.1 105.362 15.6992 104.327 16.6135 103.468C17.0131 103.039 17.4665 102.678 17.9661 102.395C19.1032 101.728 19.7179 100.432 19.7179 99.1133V94.1991C18.4346 94.3374 17.2363 94.6133 16.1143 95.0271C14.3008 95.702 12.6793 96.7292 11.2426 98.1319C8.57608 100.839 7.24658 104.089 7.24658 107.861V132.555H10.9813C12.0183 132.555 12.9099 132.195 13.6398 131.466C14.3928 130.738 14.7617 129.879 14.7617 128.837V117.59H19.5085C19.8833 117.59 20.1784 117.281 20.1686 116.907C20.1637 116.719 20.1637 116.531 20.1637 116.34C20.1637 114.45 20.4113 112.651 20.9256 110.965C21.0536 110.546 20.7242 110.128 20.2851 110.131Z" fill="#31348D"/>
<path d="M91.7504 124.264C91.2507 123.98 90.7973 123.62 90.3982 123.19C89.4834 122.332 88.8842 121.297 88.6229 120.07C88.5691 119.656 88.5464 119.235 88.5464 118.798V109.068V107.565H92.8447C93.1354 107.565 93.371 107.329 93.371 107.04V100.607C93.371 100.318 93.1354 100.083 92.8447 100.083H88.5464V97.8216C88.5464 96.779 88.1775 95.9204 87.4245 95.1922C86.6942 94.464 85.803 94.1034 84.7655 94.1034H81.0312V118.798C81.0312 122.57 82.3603 125.82 85.0269 128.527C86.4635 129.929 88.085 130.957 89.8986 131.631C91.0205 132.046 92.2193 132.321 93.5021 132.459V127.545C93.5021 126.227 92.8878 124.931 91.7504 124.264Z" fill="#31348D"/>
</g>
</svg>
